<svg width="224" height="97" viewBox="0 0 224 97" fill="none" xmlns="http://www.w3.org/2000/svg">
<path d="M10.2593 69.7673C10.3146 70.9018 10.5221 72.0085 10.8818 73.0876C11.2415 74.1667 11.8088 75.1213 12.5835 75.9514C13.3582 76.7538 14.382 77.4041 15.6548 77.9021C16.9276 78.3725 18.5186 78.6077 20.4277 78.6077C22.6413 78.6077 24.4674 78.3171 25.9062 77.7361C27.3727 77.1274 28.521 76.325 29.3511 75.3289C30.2088 74.3328 30.8037 73.1983 31.1357 71.9255C31.4954 70.6528 31.6753 69.3385 31.6753 67.9827V48.1853C31.6753 46.6912 31.1911 45.6259 30.2227 44.9895C29.2542 44.3254 27.3035 43.9934 24.3706 43.9934V28.5955H62.9277V43.9934C60.4928 43.9934 58.7497 44.3254 57.6982 44.9895C56.6745 45.6259 56.1626 46.8572 56.1626 48.6833V67.8997C56.1626 70.2792 55.7891 72.8525 55.042 75.6194C54.2949 78.3863 52.9253 80.9319 50.9331 83.2561C48.9686 85.5803 46.257 87.531 42.7983 89.1082C39.3397 90.6576 34.8988 91.4324 29.4756 91.4324C24.3568 91.4324 20.1649 90.7268 16.8999 89.3157C13.6626 87.9045 11.1309 86.1614 9.30469 84.0862C7.50618 82.011 6.26107 79.8251 5.56934 77.5286C4.8776 75.232 4.53174 73.2398 4.53174 71.552C4.53174 69.1171 4.89144 66.9589 5.61084 65.0774C6.33024 63.1959 7.25716 61.6326 8.3916 60.3875C9.52604 59.1423 10.8403 58.2154 12.3345 57.6067C13.8286 56.9703 15.3919 56.6521 17.0244 56.6521C18.9613 56.6521 20.6076 56.9426 21.9634 57.5237C23.3192 58.0771 24.4398 58.8241 25.3252 59.7649C26.2106 60.7056 26.847 61.7709 27.2344 62.9607C27.6494 64.1505 27.8569 65.3679 27.8569 66.613C27.8569 67.9688 27.6217 69.2139 27.1514 70.3484C26.7087 71.4828 26.0999 72.4651 25.3252 73.2952C24.5781 74.0976 23.665 74.7478 22.5859 75.2458C21.5068 75.7162 20.3724 75.9514 19.1826 75.9514C17.7438 75.9514 16.5264 75.7716 15.5303 75.4119C14.5618 75.0522 13.7318 74.5818 13.04 74.0007C12.376 73.392 11.8088 72.7141 11.3384 71.967C10.8957 71.22 10.536 70.4867 10.2593 69.7673ZM125.972 89.7307V74.3328C128.407 74.3328 129.998 74.0146 130.745 73.3782C131.52 72.7141 131.907 71.4828 131.907 69.6843V45.8611L117.713 89.7307H101.734L87.2905 48.1853V70.1824C87.2905 71.0955 87.3735 71.8287 87.5396 72.3821C87.7056 72.9078 87.9961 73.3228 88.4111 73.6272C88.8538 73.9316 89.4626 74.1252 90.2373 74.2083C91.0397 74.2913 92.0358 74.3328 93.2256 74.3328V89.7307H66.3726V74.3328C68.8075 74.3328 70.5506 74.0146 71.6021 73.3782C72.6535 72.7141 73.1792 71.4828 73.1792 69.6843V48.6833C73.1792 46.8572 72.6535 45.6259 71.6021 44.9895C70.5506 44.3254 68.8075 43.9934 66.3726 43.9934V28.5955H105.884L115.43 57.2747L123.731 28.5955H162.745V43.9934C160.31 43.9934 158.567 44.3254 157.515 44.9895C156.491 45.6259 155.979 46.8572 155.979 48.6833V69.6843C155.979 71.4828 156.491 72.7141 157.515 73.3782C158.567 74.0146 160.31 74.3328 162.745 74.3328V89.7307H125.972Z" fill="#E03125"/>
<path d="M8.25928 66.0366C8.31462 67.1711 8.52214 68.2778 8.88184 69.3569C9.24154 70.436 9.80876 71.3906 10.5835 72.2207C11.3582 73.0231 12.382 73.6733 13.6548 74.1714C14.9276 74.6418 16.5186 74.877 18.4277 74.877C20.6413 74.877 22.4674 74.5864 23.9062 74.0054C25.3727 73.3966 26.521 72.5942 27.3511 71.5981C28.2088 70.6021 28.8037 69.4676 29.1357 68.1948C29.4954 66.922 29.6753 65.6077 29.6753 64.252V44.4546C29.6753 42.9604 29.1911 41.8952 28.2227 41.2588C27.2542 40.5947 25.3035 40.2627 22.3706 40.2627V24.8647H60.9277V40.2627C58.4928 40.2627 56.7497 40.5947 55.6982 41.2588C54.6745 41.8952 54.1626 43.1265 54.1626 44.9526V64.1689C54.1626 66.5485 53.7891 69.1217 53.042 71.8887C52.2949 74.6556 50.9253 77.2012 48.9331 79.5254C46.9686 81.8496 44.257 83.8003 40.7983 85.3774C37.3397 86.9269 32.8988 87.7017 27.4756 87.7017C22.3568 87.7017 18.1649 86.9961 14.8999 85.585C11.6626 84.1738 9.13086 82.4307 7.30469 80.3555C5.50618 78.2803 4.26107 76.0944 3.56934 73.7979C2.8776 71.5013 2.53174 69.5091 2.53174 67.8213C2.53174 65.3864 2.89144 63.2282 3.61084 61.3467C4.33024 59.4652 5.25716 57.9019 6.3916 56.6567C7.52604 55.4116 8.84033 54.4847 10.3345 53.876C11.8286 53.2396 13.3919 52.9214 15.0244 52.9214C16.9613 52.9214 18.6076 53.2119 19.9634 53.793C21.3192 54.3464 22.4398 55.0934 23.3252 56.0342C24.2106 56.9749 24.847 58.0402 25.2344 59.23C25.6494 60.4198 25.8569 61.6372 25.8569 62.8823C25.8569 64.2381 25.6217 65.4832 25.1514 66.6177C24.7087 67.7521 24.0999 68.7344 23.3252 69.5645C22.5781 70.3669 21.665 71.0171 20.5859 71.5151C19.5068 71.9855 18.3724 72.2207 17.1826 72.2207C15.7438 72.2207 14.5264 72.0409 13.5303 71.6812C12.5618 71.3215 11.7318 70.8511 11.04 70.27C10.376 69.6613 9.80876 68.9834 9.33838 68.2363C8.89567 67.4893 8.53597 66.756 8.25928 66.0366ZM123.972 86V70.6021C126.407 70.6021 127.998 70.2839 128.745 69.6475C129.52 68.9834 129.907 67.7521 129.907 65.9536V42.1304L115.713 86H99.7339L85.2905 44.4546V66.4517C85.2905 67.3647 85.3735 68.098 85.5396 68.6514C85.7056 69.1771 85.9961 69.5921 86.4111 69.8965C86.8538 70.2008 87.4626 70.3945 88.2373 70.4775C89.0397 70.5605 90.0358 70.6021 91.2256 70.6021V86H64.3726V70.6021C66.8075 70.6021 68.5506 70.2839 69.6021 69.6475C70.6535 68.9834 71.1792 67.7521 71.1792 65.9536V44.9526C71.1792 43.1265 70.6535 41.8952 69.6021 41.2588C68.5506 40.5947 66.8075 40.2627 64.3726 40.2627V24.8647H103.884L113.43 53.5439L121.731 24.8647H160.745V40.2627C158.31 40.2627 156.567 40.5947 155.515 41.2588C154.491 41.8952 153.979 43.1265 153.979 44.9526V65.9536C153.979 67.7521 154.491 68.9834 155.515 69.6475C156.567 70.2839 158.31 70.6021 160.745 70.6021V86H123.972Z" fill="#ADAB37"/>
</svg>
